<svg id="companion-art" viewBox="0 0 220 220" role="img" aria-label="16-bit smiling LEGO Vader bashing the floor" xmlns="http://www.w3.org/2000/svg" shape-rendering="crispEdges">
  <ellipse class="impact-shadow" cx="112" cy="198" rx="70" ry="9" fill="#050607" opacity=".34"/>

  <g class="floor-board">
    <rect x="30" y="181" width="160" height="18" rx="0" fill="#4F5B66"/>
    <rect x="38" y="185" width="144" height="4" fill="#8795A1" opacity=".55"/>
    <rect x="45" y="194" width="128" height="3" fill="#17212B" opacity=".42"/>
  </g>

  <g class="floor-crack" fill="#0B0F14" opacity="0">
    <rect x="48" y="176" width="8" height="5"/>
    <rect x="56" y="181" width="5" height="15"/>
    <rect x="63" y="171" width="17" height="5"/>
    <rect x="81" y="176" width="5" height="17"/>
    <rect x="87" y="183" width="19" height="4"/>
  </g>

  <g class="impact-lines" fill="#FF1744" opacity="0">
    <rect x="31" y="162" width="23" height="5"/>
    <rect x="59" y="146" width="5" height="24"/>
    <rect x="82" y="155" width="22" height="5"/>
    <rect x="36" y="183" width="24" height="4"/>
    <rect x="83" y="190" width="28" height="4"/>
  </g>

  <g class="lego-rig">
    <g class="cape">
      <rect x="58" y="94" width="32" height="88" fill="#0A0D10"/>
      <rect x="90" y="102" width="68" height="80" fill="#111820"/>
      <rect x="154" y="112" width="16" height="70" fill="#050607"/>
      <rect x="54" y="138" width="12" height="44" fill="#1A222C"/>
      <rect x="66" y="176" width="102" height="8" fill="#050607"/>
      <rect x="62" y="100" width="6" height="72" fill="#2E3845" opacity=".7"/>
    </g>

    <g class="lego-legs">
      <rect x="77" y="148" width="31" height="54" fill="#090C10"/>
      <rect x="118" y="148" width="31" height="54" fill="#090C10"/>
      <rect x="75" y="195" width="36" height="12" fill="#030405"/>
      <rect x="115" y="195" width="36" height="12" fill="#030405"/>
      <rect x="88" y="152" width="8" height="40" fill="#212B36"/>
      <rect x="127" y="152" width="8" height="40" fill="#212B36"/>
    </g>

    <g class="torso">
      <rect x="73" y="101" width="68" height="47" fill="#070A0D"/>
      <rect x="81" y="109" width="52" height="8" fill="#1F2933"/>
      <rect x="89" y="119" width="34" height="24" fill="#151B23"/>
      <rect x="94" y="124" width="8" height="6" fill="#E53935"/>
      <rect x="108" y="124" width="8" height="6" fill="#A5D6A7"/>
      <rect x="120" y="124" width="8" height="6" fill="#ECEFF1"/>
      <rect x="98" y="137" width="24" height="4" fill="#90A4AE"/>
      <rect x="78" y="104" width="9" height="40" fill="#25313D"/>
    </g>

    <g class="lego-arm lego-idle-arm">
      <rect x="139" y="104" width="22" height="42" fill="#0B0F14"/>
      <rect x="154" y="91" width="20" height="42" fill="#111820"/>
      <rect x="166" y="84" width="15" height="29" fill="#0A0D10"/>
      <rect x="162" y="84" width="9" height="9" fill="#2C3642"/>
      <rect x="158" y="129" width="18" height="18" fill="#050607"/>
    </g>

    <g class="lego-head">
      <rect x="79" y="58" width="65" height="50" fill="#F7C600"/>
      <rect x="84" y="101" width="55" height="8" fill="#C98C00" opacity=".45"/>
      <rect x="80" y="62" width="7" height="40" fill="#FFE073" opacity=".35"/>
      <rect x="136" y="68" width="7" height="32" fill="#D79A00" opacity=".6"/>

      <rect x="96" y="81" width="7" height="5" fill="#111111"/>
      <rect x="122" y="81" width="7" height="5" fill="#111111"/>
      <rect x="100" y="77" width="6" height="4" fill="#111111"/>
      <rect x="125" y="77" width="6" height="4" fill="#111111"/>
      <rect x="102" y="91" width="34" height="20" fill="#111111"/>
      <rect x="108" y="108" width="16" height="4" fill="#111111"/>
      <rect x="123" y="102" width="13" height="10" fill="#D32F2F"/>
      <rect x="128" y="100" width="6" height="4" fill="#FF6F61"/>
    </g>

    <g class="helmet">
      <rect x="62" y="28" width="84" height="14" fill="#080A0D"/>
      <rect x="54" y="42" width="106" height="19" fill="#101820"/>
      <rect x="47" y="61" width="112" height="16" fill="#050607"/>
      <rect x="41" y="77" width="39" height="20" fill="#090C10"/>
      <rect x="142" y="77" width="30" height="20" fill="#080B0E"/>
      <rect x="58" y="37" width="76" height="8" fill="#293542"/>
      <rect x="86" y="22" width="54" height="8" fill="#121820"/>
      <rect x="105" y="18" width="28" height="5" fill="#313D4A"/>
      <rect x="132" y="28" width="10" height="23" fill="#1D2630"/>
      <rect x="151" y="54" width="12" height="31" fill="#1D2630"/>
      <rect x="67" y="43" width="6" height="42" fill="#2E3845" opacity=".65"/>

      <rect x="98" y="55" width="17" height="16" fill="#151B23"/>
      <rect x="119" y="55" width="17" height="16" fill="#151B23"/>
      <rect x="102" y="59" width="11" height="5" fill="#4F5B66"/>
      <rect x="122" y="59" width="10" height="5" fill="#4F5B66"/>
      <rect x="114" y="66" width="13" height="26" fill="#090C10"/>
      <rect x="109" y="89" width="25" height="5" fill="#4A5562"/>
      <rect x="103" y="76" width="38" height="6" fill="#151B23"/>
    </g>

    <g class="lego-arm lego-smash-arm" transform="rotate(-145 88 116)">
      <rect x="58" y="112" width="20" height="45" fill="#0B0F14"/>
      <rect x="54" y="151" width="18" height="18" fill="#050607"/>
      <rect x="63" y="119" width="6" height="35" fill="#2C3642"/>
      <g class="lego-hammer">
        <rect x="62" y="148" width="10" height="39" fill="#26313C"/>
        <rect x="66" y="151" width="4" height="36" fill="#6F7E8A"/>
        <rect x="50" y="176" width="34" height="8" fill="#6F7E8A"/>
        <rect x="46" y="184" width="42" height="11" fill="#17212B"/>
        <rect x="53" y="195" width="28" height="5" fill="#050607"/>
        <rect x="55" y="178" width="24" height="4" fill="#B0BEC5"/>
      </g>
    </g>
  </g>

  <g class="pixel-fire" opacity="0">
    <rect x="35" y="181" width="58" height="8" fill="#D50000"/>
    <rect x="42" y="172" width="45" height="10" fill="#FF3D00"/>
    <rect x="51" y="162" width="31" height="11" fill="#FF8F00"/>
    <rect x="60" y="151" width="15" height="12" fill="#FFE600"/>
    <rect x="31" y="169" width="10" height="10" fill="#FF6D00"/>
    <rect x="88" y="168" width="11" height="11" fill="#FF6D00"/>
    <rect x="45" y="154" width="8" height="8" fill="#FFF176"/>
    <rect x="77" y="158" width="8" height="8" fill="#FFF176"/>
    <rect x="55" y="188" width="34" height="7" fill="#FFEA00"/>
    <rect x="65" y="145" width="6" height="6" fill="#FFFFFF"/>
  </g>

  <g class="pixel-sparks" opacity="0">
    <rect x="25" y="154" width="7" height="7" fill="#FFEA00"/>
    <rect x="37" y="143" width="5" height="5" fill="#FF8F00"/>
    <rect x="52" y="135" width="6" height="6" fill="#FFF176"/>
    <rect x="74" y="137" width="5" height="5" fill="#FFEA00"/>
    <rect x="96" y="145" width="7" height="7" fill="#FF8F00"/>
    <rect x="106" y="161" width="5" height="5" fill="#FF3D00"/>
    <rect x="30" y="194" width="8" height="5" fill="#FF8F00"/>
    <rect x="97" y="196" width="9" height="4" fill="#FFEA00"/>
  </g>
</svg>
